<?xml version="1.0" standalone="no"?>
<!DOCTYPE svg PUBLIC "-//W3C//DTD SVG 20010904//EN"
 "http://www.w3.org/TR/2001/REC-SVG-20010904/DTD/svg10.dtd">
<svg version="1.0" xmlns="http://www.w3.org/2000/svg"
 width="336.000000pt" height="120.000000pt" viewBox="0 0 336.000000 120.000000"
 preserveAspectRatio="xMidYMid meet">

<g transform="translate(0.000000,120.000000) scale(0.100000,-0.100000)"
fill="#000000" stroke="none">
<path d="M1816 1147 c-56 -56 -64 -191 -21 -376 14 -62 24 -115 22 -118 -3 -2
-15 10 -27 27 -64 90 -184 69 -241 -42 -27 -54 -24 -163 7 -225 l21 -41 -69
-4 c-80 -4 -91 4 -113 76 -16 54 -11 117 29 329 40 214 33 294 -31 355 -30 28
-42 33 -76 30 -30 -2 -45 -10 -60 -30 -30 -40 -33 -162 -10 -314 l19 -121 -34
23 c-94 64 -206 -9 -247 -161 -21 -77 -16 -151 15 -201 24 -37 15 -42 -30 -19
-55 29 -64 63 -63 230 2 175 -6 222 -42 231 -65 16 -97 -53 -134 -286 -28
-175 -29 -180 -46 -180 -24 0 -54 139 -76 357 -7 70 -17 124 -24 127 -6 2 -25
-2 -42 -9 -24 -10 -35 -25 -52 -69 -12 -31 -21 -63 -21 -71 0 -8 -4 -17 -10
-20 -6 -3 -10 -1 -10 4 0 21 -72 90 -106 101 l-35 12 49 52 c122 129 133 264
26 320 -61 32 -175 29 -235 -6 -120 -71 -165 -244 -141 -551 8 -111 14 -137
38 -185 40 -76 93 -105 195 -103 156 2 234 97 284 344 10 52 21 27 34 -82 25
-216 59 -301 122 -301 18 0 39 9 53 24 25 24 32 52 61 236 23 144 35 200 45
200 4 0 7 -69 6 -152 -1 -186 13 -230 85 -271 73 -42 105 -42 219 -3 101 34
153 68 166 108 7 25 21 23 28 -4 3 -13 18 -38 34 -57 21 -25 35 -33 57 -32 70
3 116 4 212 1 91 -2 106 0 139 21 20 12 49 42 64 66 29 46 33 46 44 1 3 -15
21 -44 38 -64 83 -95 217 -84 272 21 18 34 21 57 21 160 -1 106 -5 137 -39
265 -45 172 -51 266 -22 299 26 29 57 23 75 -14 12 -24 12 -44 3 -116 -17
-121 -15 -210 3 -236 22 -31 74 -46 123 -34 29 6 46 5 57 -3 15 -11 15 -17 2
-71 -32 -125 -38 -198 -22 -253 26 -86 41 -92 225 -92 174 0 229 12 272 58 35
37 48 82 54 187 6 110 12 138 24 130 15 -9 12 -130 -5 -218 -18 -95 -19 -169
-3 -185 21 -21 70 -13 152 27 156 77 285 220 220 245 -21 8 -34 -1 -34 -23 0
-23 -63 -79 -152 -137 -130 -85 -145 -80 -126 42 7 44 13 127 13 185 0 91 -3
110 -19 128 -36 40 -116 18 -116 -32 0 -23 -16 -29 -31 -11 -38 46 -143 60
-200 27 -63 -38 -107 -142 -96 -228 6 -37 21 -81 45 -127 2 -5 -26 -8 -61 -8
-93 0 -101 10 -94 120 4 47 13 117 21 155 17 74 13 127 -10 146 -7 6 -51 12
-96 13 l-83 1 0 170 c0 161 -1 172 -23 202 -47 67 -144 49 -187 -33 -29 -56
-24 -122 23 -319 22 -93 43 -197 47 -230 7 -71 -8 -160 -34 -195 -40 -55 -136
-26 -171 53 -27 58 -25 142 6 344 46 299 23 406 -93 429 -25 5 -37 1 -57 -19z
m-1448 -75 c31 -20 37 -55 17 -108 -35 -92 -170 -204 -213 -177 -26 15 -42 54
-42 99 0 30 -5 45 -20 55 l-20 14 20 41 c36 73 107 108 195 96 22 -3 50 -12
63 -20z m994 -3 c11 -14 22 -45 25 -68 7 -49 -37 -335 -49 -323 -4 4 -17 71
-29 147 -19 131 -21 237 -4 265 11 17 36 8 57 -21z m543 7 c9 -13 18 -46 21
-73 6 -48 -22 -305 -36 -331 -3 -8 -19 43 -34 113 -40 181 -32 315 20 315 7 0
21 -11 29 -24z m-1801 -312 l29 -36 -29 -24 c-16 -13 -32 -23 -36 -24 -5 0 -8
27 -8 60 0 33 3 60 8 60 4 0 20 -16 36 -36z m224 -78 c54 -28 75 -62 80 -126
4 -48 0 -65 -17 -93 -69 -112 -213 -130 -272 -34 -35 58 -43 105 -24 154 34
89 154 140 233 99z m874 -16 c55 -42 73 -134 43 -207 -37 -89 -90 -128 -153
-111 -95 25 -94 193 2 293 47 50 71 55 108 25z m513 0 c50 -19 83 -151 56
-223 -25 -64 -86 -84 -136 -45 -77 60 -72 210 9 259 36 22 37 22 71 9z m1109
-61 c39 -31 58 -75 58 -138 1 -70 -20 -113 -66 -135 -83 -39 -143 -2 -167 103
-28 125 88 238 175 170z"/>
<path d="M65 161 c-2 -5 -1 -22 5 -37 5 -16 14 -48 20 -71 8 -32 16 -43 30
-43 11 0 20 6 20 13 0 6 5 30 12 52 l11 40 11 -50 c17 -78 40 -73 66 15 11 39
18 75 15 80 -13 21 -25 9 -36 -35 -12 -49 -29 -60 -29 -19 0 69 -46 79 -56 13
-7 -44 -24 -63 -24 -27 0 37 -11 66 -26 72 -7 3 -16 1 -19 -3z"/>
<path d="M1060 101 c0 -39 -1 -74 -2 -78 -2 -5 18 -9 45 -11 37 -2 47 0 47 12
0 11 -10 16 -30 16 -23 0 -30 4 -30 20 0 15 7 20 25 20 14 0 25 5 25 10 0 6
-11 10 -25 10 -37 0 -35 38 3 42 39 4 26 22 -19 26 l-39 3 0 -70z"/>
<path d="M1961 116 c-31 -84 -35 -106 -19 -106 7 0 19 9 26 20 16 26 48 26 62
0 14 -25 44 -27 36 -2 -24 73 -55 137 -68 140 -11 2 -22 -13 -37 -52z m49 -21
c0 -16 -6 -25 -16 -25 -11 0 -14 5 -10 16 3 9 6 20 6 25 0 5 5 9 10 9 6 0 10
-11 10 -25z"/>
<path d="M2863 154 c-9 -24 2 -138 15 -142 8 -2 12 7 12 27 0 39 14 40 37 1 9
-17 25 -30 35 -30 22 0 23 9 3 37 -13 18 -13 25 0 49 21 41 5 61 -51 66 -28 2
-48 -1 -51 -8z m72 -34 c0 -8 -10 -16 -22 -18 -18 -3 -23 2 -23 18 0 16 5 21
23 18 12 -2 22 -10 22 -18z"/>
</g>
</svg>
