<svg xmlns="http://www.w3.org/2000/svg" viewBox="0 0 1362.15 358.48"><defs><style>.cls-1{fill:#fff;}</style></defs><title>gajihub-logo-white</title><g id="Layer_2" data-name="Layer 2"><g id="Layer_1-2" data-name="Layer 1"><path class="cls-1" d="M266,110.18c-15.37-12-41.92-12.17-74.65,11.24h0l-16.82,12L134.47,162.1l-29.56-32.4a19.78,19.78,0,0,0-29.22,26.67l41.4,45.36a19.78,19.78,0,0,0,26.11,2.75s80.49-65.08,80.93-65.42c10.54-8.95,20.67-12.79,34.73-9.44,11.39,2.72,20.7,12.11,20.88,21.44C282.52,134.12,277.25,119,266,110.18Z"/><path class="cls-1" d="M259.82,144c-3-1-14.35-4.53-28.24,7.25l-29,23.42,18.1-6.8a9.18,9.18,0,0,1,11.64,12.23,100.64,100.64,0,0,1-103.18,60c-46.27-4.92-83.8-42.2-89-88.45a100.41,100.41,0,0,1,170-83.4,19.79,19.79,0,1,0,27.92-28.06A139.56,139.56,0,0,0,128,.51C59.63,6.27,4.72,62.36.3,130.86-5,212.29,59.79,280.21,140.11,280.21a140.17,140.17,0,0,0,122.4-72,99.74,99.74,0,0,0,6.5-13.25C277.4,172.55,277.08,149.75,259.82,144Z"/><path class="cls-1" d="M884,31.28a11.3,11.3,0,0,0-11.3,11.31V144.45H731.51V42.59a11.3,11.3,0,1,0-22.6,0V268.91a11.3,11.3,0,1,0,22.6,0V167.05H872.74V268.91a11.3,11.3,0,0,0,22.6,0V42.59A11.3,11.3,0,0,0,884,31.28Z"/><path class="cls-1" d="M572.68,77.64A19.77,19.77,0,0,0,552.9,97.42v208a13.49,13.49,0,0,1-13.5,13.5h-8.16a19.78,19.78,0,0,0-19.78,19.78h0a19.78,19.78,0,0,0,19.78,19.77h8.16a53,53,0,0,0,53.05-53.05v-208A19.77,19.77,0,0,0,572.68,77.64Z"/><circle class="cls-1" cx="572.68" cy="25.27" r="25.27"/><rect class="cls-1" x="629.92" y="77.64" width="39.55" height="202.57" rx="19.78"/><path class="cls-1" d="M649.7,0h0a25.27,25.27,0,0,0,0,50.54h0A25.27,25.27,0,0,0,649.7,0Z"/><path class="cls-1" d="M1361.52,167.39c-5.13-46.35-42.53-83.85-88.87-89.08a101.14,101.14,0,0,0-90.47,36.89V42.58a11.3,11.3,0,1,0-22.6,0V178.93a101.3,101.3,0,1,0,201.94-11.54Zm-22.62,21.79a78.71,78.71,0,1,1-88.29-88.29A78.91,78.91,0,0,1,1338.9,189.18Z"/><path class="cls-1" d="M1111.43,77.64a11.3,11.3,0,0,0-11.3,11.3v93.85c0,39.11-30,72.8-69.05,74.73A72.79,72.79,0,0,1,954.7,184.9v-96a11.3,11.3,0,0,0-22.6,0v96a95.28,95.28,0,0,0,168,61.55v22.46a11.3,11.3,0,1,0,22.6,0v-180A11.3,11.3,0,0,0,1111.43,77.64Z"/><path class="cls-1" d="M511.46,178.93h0A101.64,101.64,0,1,0,471.91,259v1.4a19.78,19.78,0,0,0,39.55,0ZM410.18,240.66a61.74,61.74,0,1,1,61.73-61.73A61.8,61.8,0,0,1,410.18,240.66Z"/></g></g></svg>