<?xml version="1.0" standalone="no"?>
<!DOCTYPE svg PUBLIC "-//W3C//DTD SVG 20010904//EN"
 "http://www.w3.org/TR/2001/REC-SVG-20010904/DTD/svg10.dtd">
<svg version="1.0" xmlns="http://www.w3.org/2000/svg"
 width="275.000000pt" height="70.000000pt" viewBox="0 0 275.000000 70.000000"
 preserveAspectRatio="xMidYMid meet">

<g transform="translate(0.000000,70.000000) scale(0.100000,-0.100000)"
fill="#000000" stroke="none">
<path d="M1207 623 c-120 -187 -177 -297 -177 -341 0 -9 11 12 24 48 12 36 37
89 55 119 41 68 132 213 141 224 7 8 91 -119 167 -253 24 -41 43 -71 43 -66 0
21 -192 336 -204 336 -3 0 -25 -30 -49 -67z"/>
<path d="M1238 618 c-39 -62 -59 -98 -55 -98 3 0 19 23 36 50 17 28 35 48 40
45 17 -10 145 -220 168 -275 12 -30 23 -48 23 -40 0 26 -36 95 -115 219 -42
67 -78 121 -80 121 -1 0 -9 -10 -17 -22z"/>
<path d="M1246 583 c-11 -11 -6 -23 9 -23 8 0 15 4 15 9 0 13 -16 22 -24 14z"/>
<path d="M1230 520 c0 -24 26 -38 42 -22 8 8 4 9 -12 5 -20 -5 -22 -3 -18 15
4 12 2 22 -3 22 -5 0 -9 -9 -9 -20z"/>
<path d="M1265 530 c3 -5 8 -10 11 -10 2 0 4 5 4 10 0 6 -5 10 -11 10 -5 0 -7
-4 -4 -10z"/>
<path d="M1106 401 c-20 -38 -36 -73 -36 -77 0 -5 18 24 40 65 22 41 38 76 36
78 -2 2 -20 -28 -40 -66z"/>
<path d="M1241 452 c-6 -11 -11 -35 -11 -52 0 -27 -2 -30 -19 -20 -24 12 -71
13 -71 2 0 -5 12 -15 28 -22 19 -9 23 -14 12 -17 -29 -9 -60 -26 -60 -35 0 -4
29 -8 65 -8 l64 0 4 -117 3 -118 2 118 2 117 65 0 c36 0 65 3 65 6 0 12 -34
33 -53 34 -10 0 -15 5 -11 11 3 6 -8 3 -25 -5 -36 -19 -42 -5 -9 18 25 18 63
22 53 6 -3 -6 1 -7 9 -4 9 3 16 10 16 15 0 12 -47 11 -71 -1 -14 -8 -19 -7
-20 2 -1 7 -4 3 -7 -10 -11 -39 -27 -25 -27 23 0 48 16 62 27 23 5 -21 6 -21
7 -2 1 11 -5 29 -13 39 -13 18 -14 18 -25 -3z m-20 -91 c36 -29 18 -33 -26 -6
-32 19 -36 24 -19 25 12 0 32 -9 45 -19z m15 -42 c3 -5 -18 -9 -47 -9 -32 0
-49 4 -43 9 20 19 78 19 90 0z m129 1 c4 -6 -13 -10 -45 -10 -32 0 -49 4 -45
10 3 6 24 10 45 10 21 0 42 -4 45 -10z"/>
<path d="M1176 452 c-3 -6 -1 -14 5 -17 15 -10 25 3 12 16 -7 7 -13 7 -17 1z"/>
<path d="M1310 445 c0 -9 5 -15 11 -13 6 2 11 8 11 13 0 5 -5 11 -11 13 -6 2
-11 -4 -11 -13z"/>
<path d="M0 300 c0 -47 4 -80 10 -80 6 0 10 33 10 80 0 47 -4 80 -10 80 -6 0
-10 -33 -10 -80z"/>
<path d="M92 368 c-22 -22 -12 -47 28 -73 41 -26 51 -51 24 -62 -8 -3 -27 0
-41 6 -19 9 -24 9 -21 -1 3 -7 21 -14 41 -16 29 -3 38 1 48 19 12 24 6 31 -63
80 -20 14 -21 18 -9 33 10 12 23 15 45 11 23 -5 27 -4 16 4 -20 14 -53 14 -68
-1z"/>
<path d="M230 300 l0 -80 48 2 c43 1 44 2 10 5 l-38 4 0 75 c0 43 -4 74 -10
74 -6 0 -10 -33 -10 -80z"/>
<path d="M391 305 c-18 -42 -32 -78 -29 -80 3 -3 18 1 34 10 38 20 84 20 84 0
0 -8 5 -15 10 -15 6 0 10 2 10 4 0 8 -69 156 -72 156 -2 0 -18 -34 -37 -75z
m58 4 c16 -45 15 -46 -24 -51 -40 -5 -41 -2 -18 47 21 43 28 44 42 4z"/>
<path d="M550 300 c0 -47 4 -80 10 -80 6 0 10 28 10 63 l1 62 32 -40 c18 -21
42 -51 54 -65 l22 -25 -1 85 c-2 74 -2 77 -5 23 -2 -35 -7 -63 -11 -63 -4 1
-27 27 -52 60 -25 33 -48 59 -52 60 -5 0 -8 -36 -8 -80z"/>
<path d="M750 300 l0 -80 45 0 c35 0 52 6 70 25 57 56 10 135 -80 135 l-35 0
0 -80z m103 43 c41 -38 6 -113 -53 -113 l-30 0 0 63 c0 35 3 67 7 71 10 10 55
-3 76 -21z"/>
<path d="M1620 371 c23 -6 25 -12 30 -81 l4 -75 6 75 c4 61 8 75 22 75 9 0 20
4 24 8 4 4 -19 7 -52 6 -41 -1 -51 -3 -34 -8z"/>
<path d="M1763 300 c0 -47 2 -65 4 -41 l4 43 37 -6 c20 -3 42 -6 49 -6 6 0 14
-17 16 -37 2 -21 4 0 4 47 0 47 -2 65 -4 41 -4 -42 -5 -43 -35 -37 -17 3 -39
6 -49 6 -13 0 -19 9 -22 38 -2 20 -4 -1 -4 -48z"/>
<path d="M1962 298 c0 -46 3 -68 5 -50 3 26 9 32 27 32 18 0 32 -14 57 -57 52
-88 108 -118 175 -93 37 15 22 25 -16 11 -44 -15 -91 6 -129 59 -40 56 -46 78
-27 99 34 38 4 81 -57 81 l-37 0 2 -82z m83 32 c0 -22 -5 -25 -37 -28 -36 -3
-38 -2 -38 28 0 30 2 31 38 28 32 -3 37 -6 37 -28z"/>
<path d="M2130 300 l0 -80 53 2 c50 1 50 2 10 5 -40 4 -43 6 -43 34 0 27 3 29
35 29 19 0 35 5 35 10 0 6 -16 10 -35 10 -32 0 -35 2 -35 29 0 28 3 30 43 34
40 3 40 4 -10 5 l-53 2 0 -80z"/>
<path d="M2306 306 c-20 -43 -35 -80 -33 -82 2 -3 17 2 33 11 39 20 74 19 90
-2 27 -38 20 -4 -16 72 l-38 80 -36 -79z m67 -30 c1 -6 -15 -13 -35 -16 -21
-4 -38 -6 -38 -5 0 1 10 24 21 50 l21 48 15 -34 c8 -19 15 -38 16 -43z"/>
<path d="M2470 300 l0 -80 40 0 c30 0 47 7 65 25 54 53 15 135 -65 135 l-40 0
0 -80z m67 59 c34 -13 43 -25 43 -66 0 -37 -29 -63 -72 -63 -28 0 -28 1 -28
63 0 81 4 86 57 66z"/>
<path d="M2662 368 c-22 -22 -12 -47 28 -73 41 -26 51 -51 24 -62 -8 -3 -26
-1 -40 5 -13 7 -24 8 -24 3 0 -23 72 -28 90 -6 18 22 4 50 -36 68 -27 13 -35
22 -32 40 2 18 8 22 36 19 21 -1 31 2 27 8 -9 14 -58 13 -73 -2z"/>
<path d="M1466 315 c8 -37 14 -45 14 -19 0 10 -5 26 -10 34 -8 11 -9 7 -4 -15z"/>
<path d="M1061 294 c0 -11 3 -14 6 -6 3 7 2 16 -1 19 -3 4 -6 -2 -5 -13z"/>
<path d="M1452 250 c0 -19 2 -27 5 -17 2 9 2 25 0 35 -3 9 -5 1 -5 -18z"/>
<path d="M1053 235 c0 -22 2 -30 4 -17 2 12 2 30 0 40 -3 9 -5 -1 -4 -23z"/>
<path d="M1482 240 c-1 -19 -5 -46 -7 -60 l-6 -25 11 25 c6 13 9 40 7 60 l-4
35 -1 -35z"/>
<path d="M1022 235 c0 -16 2 -22 5 -12 2 9 2 23 0 30 -3 6 -5 -1 -5 -18z"/>
<path d="M1125 230 l-29 -30 32 -33 c25 -25 34 -29 41 -18 6 9 11 10 15 2 16
-26 26 -7 26 49 0 60 -6 70 -28 48 -9 -9 -12 -9 -12 0 0 20 -15 14 -45 -18z
m32 -9 c0 -11 -5 -17 -9 -15 -4 3 -8 1 -8 -5 0 -5 5 -13 10 -16 6 -3 10 -11
10 -18 0 -6 -10 -2 -22 10 -21 22 -21 23 -3 43 22 25 24 25 22 1z m43 -22 c0
-36 -2 -40 -15 -29 -18 15 -19 42 -3 58 17 17 18 16 18 -29z"/>
<path d="M1300 200 c0 -56 2 -61 16 -49 12 10 17 10 23 1 5 -8 16 -3 36 18
l29 30 -29 30 c-20 21 -31 26 -36 18 -6 -9 -11 -9 -23 1 -14 12 -16 7 -16 -49z
m40 0 c0 -10 -7 -23 -15 -30 -13 -11 -15 -7 -15 30 0 37 2 41 15 30 8 -7 15
-20 15 -30z m35 20 c17 -19 17 -21 0 -40 -10 -11 -22 -20 -27 -20 -5 0 -4 9 2
20 8 14 8 26 0 40 -6 11 -7 20 -2 20 5 0 17 -9 27 -20z"/>
<path d="M1031 188 c-4 -59 105 -179 161 -178 7 0 -5 9 -28 19 -50 23 -109 90
-122 139 -6 21 -10 29 -11 20z"/>
<path d="M1060 181 c0 -23 29 -68 64 -99 38 -33 92 -53 141 -51 19 1 9 5 -25
10 -70 12 -126 51 -157 108 -13 24 -23 39 -23 32z"/>
<path d="M1406 114 c-16 -20 -47 -45 -70 -55 -22 -10 -35 -19 -28 -19 30 0
102 54 123 93 15 26 7 20 -25 -19z"/>
<path d="M1460 142 c0 -22 -74 -95 -115 -113 -22 -10 -33 -19 -24 -19 44 0
167 116 145 137 -3 4 -6 1 -6 -5z"/>
<path d="M1233 3 c15 -2 37 -2 50 0 12 2 0 4 -28 4 -27 0 -38 -2 -22 -4z"/>
</g>
</svg>
