<?xml version="1.0" standalone="no"?>
<!DOCTYPE svg PUBLIC "-//W3C//DTD SVG 20010904//EN"
 "http://www.w3.org/TR/2001/REC-SVG-20010904/DTD/svg10.dtd">
<svg version="1.0" xmlns="http://www.w3.org/2000/svg"
 width="232.000000pt" height="131.000000pt" viewBox="0 0 232.000000 131.000000"
 preserveAspectRatio="xMidYMid meet">

<g transform="translate(0.000000,131.000000) scale(0.100000,-0.100000)"
fill="#000000" stroke="none">
<path d="M520 1278 c-219 -125 -507 -472 -513 -620 -3 -66 19 -71 109 -23 42
22 78 44 81 48 2 4 -32 -11 -76 -34 -74 -39 -83 -41 -97 -27 -13 13 -14 22 -4
59 52 192 308 483 514 584 31 15 56 31 56 36 0 14 -12 11 -70 -23z"/>
<path d="M20 1231 c0 -6 18 -31 41 -54 l41 -42 -38 50 c-21 28 -40 52 -41 54
-2 2 -3 -1 -3 -8z"/>
<path d="M100 1126 c0 -2 8 -10 18 -17 15 -13 16 -12 3 4 -13 16 -21 21 -21
13z"/>
<path d="M2078 1003 c-8 -10 -61 -94 -119 -188 -57 -93 -122 -190 -144 -214
-22 -25 -34 -41 -26 -36 22 13 10 -11 -53 -109 -59 -91 -65 -120 -7 -35 74
108 203 197 300 207 59 5 76 -11 67 -64 -8 -40 -72 -116 -119 -141 -40 -20
-91 -19 -125 3 -25 16 -26 16 -13 0 8 -9 26 -23 41 -31 88 -45 273 130 232
219 -29 65 -173 29 -283 -71 -22 -20 -39 -32 -39 -29 0 16 87 135 135 186 81
85 171 197 189 234 22 47 21 86 -2 86 -11 0 -26 -8 -34 -17z m37 -25 c-13 -42
-55 -106 -126 -192 -63 -78 -93 -107 -73 -73 46 77 160 256 172 270 21 24 35
21 27 -5z"/>
<path d="M515 820 c-74 -19 -158 -50 -152 -56 1 -2 38 8 80 21 43 14 82 25 88
25 6 0 -12 -18 -40 -40 -92 -72 -199 -234 -216 -325 -3 -16 5 -3 18 30 48 127
166 266 270 321 31 15 53 32 51 36 -7 11 -19 10 -99 -12z"/>
<path d="M1291 830 c-157 -33 -334 -128 -454 -243 l-56 -54 -36 24 c-23 16
-34 30 -31 39 20 48 20 49 -6 26 l-25 -22 -54 41 -54 41 49 -46 50 -45 -20
-23 c-17 -20 -16 -20 10 2 26 22 28 23 22 5 -23 -76 -33 -199 -18 -209 4 -3
32 31 61 75 31 47 57 77 63 73 6 -4 8 -3 5 3 -9 15 88 103 176 161 236 154
495 186 568 69 40 -64 3 -163 -112 -299 l-70 -83 79 82 c93 95 132 165 132
235 0 64 -21 103 -71 128 -46 24 -144 33 -208 20z m-547 -283 l29 -23 -48 -70
c-26 -38 -50 -71 -52 -74 -9 -8 7 126 18 159 13 37 16 37 53 8z"/>
<path d="M310 745 c-14 -8 -20 -14 -15 -14 6 0 21 6 35 14 14 8 21 14 15 14
-5 0 -21 -6 -35 -14z"/>
<path d="M2274 662 c17 -18 34 -32 38 -32 15 0 0 18 -35 41 l-32 22 29 -31z"/>
<path d="M562 554 c-26 -68 -43 -176 -30 -190 4 -3 21 21 37 55 17 34 29 61
26 61 -2 0 -16 -21 -29 -47 -23 -44 -25 -46 -26 -20 0 15 9 55 20 88 21 63 23
106 2 53z"/>
<path d="M1734 528 l-19 -23 23 19 c21 18 27 26 19 26 -2 0 -12 -10 -23 -22z"/>
<path d="M623 528 c-15 -20 -25 -38 -20 -38 3 0 12 11 21 25 17 26 16 35 -1
13z"/>
<path d="M870 466 c0 -3 9 -10 20 -16 11 -6 20 -8 20 -6 0 3 -9 10 -20 16 -11
6 -20 8 -20 6z"/>
<path d="M261 394 c0 -11 3 -14 6 -6 3 7 2 16 -1 19 -3 4 -6 -2 -5 -13z"/>
<path d="M620 151 c28 -8 40 -52 19 -77 -6 -8 -9 -14 -5 -14 3 0 13 11 22 25
15 23 15 27 0 50 -10 15 -25 25 -39 24 -21 -1 -20 -1 3 -8z"/>
<path d="M930 123 c9 -21 19 -45 22 -52 3 -12 6 -12 11 2 3 9 2 17 -3 17 -5 0
-12 16 -16 35 -3 19 -12 35 -19 35 -10 0 -9 -9 5 -37z"/>
<path d="M969 146 c6 -7 8 -22 5 -32 -4 -11 -3 -16 1 -11 5 4 14 -5 20 -20 9
-23 12 -24 18 -10 3 9 2 17 -3 17 -5 0 -12 16 -16 35 -4 22 -12 35 -21 35 -12
0 -13 -3 -4 -14z"/>
<path d="M1625 110 c0 -27 3 -50 8 -50 4 0 7 10 7 23 l1 22 18 -22 c11 -13 22
-23 26 -23 4 0 -5 14 -19 31 -14 17 -26 39 -26 50 0 10 -3 19 -7 19 -5 0 -8
-22 -8 -50z"/>
<path d="M1306 135 c-3 -9 -2 -13 3 -10 5 3 15 -11 22 -30 7 -19 17 -35 21
-35 9 0 -17 69 -31 83 -5 5 -11 1 -15 -8z"/>
<path d="M1988 145 c-3 -4 0 -18 8 -33 8 -15 14 -33 14 -39 0 -7 5 -13 10 -13
13 0 12 7 -8 53 -10 21 -20 36 -24 32z"/>
<path d="M250 132 c0 -5 12 -17 26 -27 15 -10 23 -22 20 -31 -3 -9 -1 -12 4
-9 18 11 10 33 -20 55 -16 12 -30 17 -30 12z"/>
<path d="M577 133 c-13 -13 -7 -51 11 -64 15 -13 16 -12 3 3 -7 10 -11 29 -9
43 6 27 5 29 -5 18z"/>
<path d="M258 3 c12 -2 32 -2 45 0 12 2 2 4 -23 4 -25 0 -35 -2 -22 -4z"/>
<path d="M953 3 c15 -2 37 -2 50 0 12 2 0 4 -28 4 -27 0 -38 -2 -22 -4z"/>
<path d="M1638 3 c12 -2 32 -2 45 0 12 2 2 4 -23 4 -25 0 -35 -2 -22 -4z"/>
</g>
</svg>
