<svg xmlns="http://www.w3.org/2000/svg" xmlns:xlink="http://www.w3.org/1999/xlink" width="92" zoomAndPan="magnify" viewBox="0 0 69 68.999997" height="92" preserveAspectRatio="xMidYMid meet" version="1.0"><defs><clipPath id="8a955cbb29"><path d="M 2 20 L 67 20 L 67 59.121094 L 2 59.121094 Z M 2 20 " clip-rule="nonzero"/></clipPath><clipPath id="ff7739d0b3"><path d="M 25 9.621094 L 43 9.621094 L 43 27 L 25 27 Z M 25 9.621094 " clip-rule="nonzero"/></clipPath></defs><g clip-path="url(#8a955cbb29)"><path fill="#5e17eb" d="M 66.585938 20.007812 C 65.570312 20.109375 64.5625 20.257812 63.558594 20.449219 C 62.558594 20.636719 61.566406 20.867188 60.582031 21.140625 C 59.597656 21.417969 58.628906 21.730469 57.675781 22.085938 C 56.71875 22.441406 55.78125 22.839844 54.859375 23.273438 C 53.9375 23.707031 53.035156 24.183594 52.152344 24.695312 C 51.273438 25.207031 50.414062 25.753906 49.582031 26.339844 C 48.746094 26.921875 47.9375 27.542969 47.15625 28.195312 C 46.375 28.847656 45.625 29.53125 44.902344 30.25 C 44.179688 30.964844 43.492188 31.710938 42.832031 32.484375 C 42.175781 33.261719 41.550781 34.0625 40.960938 34.890625 C 40.371094 35.71875 39.820312 36.570312 39.300781 37.445312 C 38.785156 38.316406 38.308594 39.214844 37.867188 40.128906 C 37.429688 41.042969 37.03125 41.976562 36.671875 42.925781 C 36.3125 43.875 35.992188 44.835938 35.714844 45.8125 C 35.4375 46.789062 35.203125 47.773438 35.011719 48.769531 C 34.820312 49.765625 34.671875 50.769531 34.566406 51.777344 C 34.460938 50.769531 34.308594 49.765625 34.117188 48.769531 C 33.925781 47.773438 33.691406 46.789062 33.414062 45.8125 C 33.136719 44.835938 32.820312 43.875 32.460938 42.925781 C 32.101562 41.976562 31.703125 41.042969 31.261719 40.128906 C 30.824219 39.214844 30.34375 38.316406 29.828125 37.445312 C 29.3125 36.570312 28.757812 35.71875 28.167969 34.890625 C 27.582031 34.0625 26.957031 33.261719 26.296875 32.484375 C 25.640625 31.710938 24.949219 30.964844 24.226562 30.25 C 23.503906 29.53125 22.753906 28.847656 21.972656 28.195312 C 21.191406 27.542969 20.382812 26.921875 19.550781 26.339844 C 18.714844 25.753906 17.859375 25.207031 16.976562 24.695312 C 16.097656 24.183594 15.195312 23.707031 14.273438 23.273438 C 13.351562 22.839844 12.414062 22.441406 11.457031 22.085938 C 10.5 21.730469 9.53125 21.417969 8.546875 21.140625 C 7.566406 20.867188 6.574219 20.636719 5.570312 20.449219 C 4.566406 20.257812 3.558594 20.109375 2.542969 20.007812 C 2.421875 21.167969 2.359375 22.332031 2.355469 23.5 C 2.351562 24.667969 2.402344 25.832031 2.511719 26.996094 C 2.621094 28.15625 2.789062 29.3125 3.015625 30.457031 C 3.238281 31.605469 3.519531 32.738281 3.855469 33.855469 C 4.191406 34.972656 4.582031 36.074219 5.027344 37.15625 C 5.472656 38.234375 5.96875 39.292969 6.519531 40.324219 C 7.066406 41.355469 7.667969 42.359375 8.316406 43.332031 C 8.964844 44.304688 9.660156 45.246094 10.402344 46.152344 C 11.144531 47.058594 11.925781 47.925781 12.753906 48.753906 C 13.582031 49.582031 14.449219 50.371094 15.351562 51.117188 C 16.257812 51.859375 17.199219 52.558594 18.171875 53.210938 C 19.148438 53.863281 20.152344 54.46875 21.183594 55.023438 C 22.21875 55.578125 23.277344 56.082031 24.363281 56.535156 C 25.445312 56.984375 26.550781 57.382812 27.671875 57.726562 C 28.796875 58.070312 29.933594 58.359375 31.085938 58.59375 C 32.234375 58.824219 33.394531 59 34.566406 59.121094 C 35.734375 59 36.894531 58.824219 38.046875 58.59375 C 39.199219 58.359375 40.335938 58.070312 41.457031 57.726562 C 42.582031 57.382812 43.683594 56.984375 44.769531 56.535156 C 45.851562 56.082031 46.910156 55.578125 47.945312 55.023438 C 48.980469 54.46875 49.984375 53.863281 50.957031 53.210938 C 51.933594 52.558594 52.871094 51.859375 53.777344 51.117188 C 54.683594 50.371094 55.546875 49.582031 56.375 48.753906 C 57.203125 47.925781 57.988281 47.058594 58.730469 46.152344 C 59.472656 45.246094 60.167969 44.304688 60.816406 43.332031 C 61.464844 42.359375 62.0625 41.355469 62.613281 40.324219 C 63.160156 39.292969 63.660156 38.234375 64.105469 37.15625 C 64.546875 36.074219 64.9375 34.972656 65.277344 33.855469 C 65.613281 32.738281 65.890625 31.605469 66.117188 30.457031 C 66.339844 29.3125 66.507812 28.15625 66.617188 26.996094 C 66.726562 25.832031 66.78125 24.667969 66.773438 23.5 C 66.769531 22.332031 66.707031 21.167969 66.585938 20.007812 Z M 66.585938 20.007812 " fill-opacity="1" fill-rule="nonzero"/></g><g clip-path="url(#ff7739d0b3)"><path fill="#02145e" d="M 42.640625 17.929688 C 42.640625 18.472656 42.585938 19.015625 42.476562 19.550781 C 42.367188 20.085938 42.207031 20.605469 41.992188 21.109375 C 41.777344 21.613281 41.515625 22.089844 41.203125 22.542969 C 40.890625 23 40.539062 23.417969 40.140625 23.804688 C 39.746094 24.191406 39.316406 24.535156 38.847656 24.835938 C 38.382812 25.140625 37.890625 25.394531 37.375 25.605469 C 36.855469 25.8125 36.324219 25.972656 35.773438 26.078125 C 35.226562 26.183594 34.671875 26.238281 34.109375 26.238281 C 33.550781 26.238281 32.996094 26.183594 32.445312 26.078125 C 31.894531 25.972656 31.363281 25.8125 30.84375 25.605469 C 30.328125 25.394531 29.835938 25.140625 29.371094 24.835938 C 28.90625 24.535156 28.472656 24.191406 28.078125 23.804688 C 27.683594 23.417969 27.328125 23 27.015625 22.542969 C 26.707031 22.089844 26.441406 21.613281 26.230469 21.109375 C 26.015625 20.605469 25.851562 20.085938 25.742188 19.550781 C 25.632812 19.015625 25.578125 18.472656 25.578125 17.929688 C 25.578125 17.382812 25.632812 16.84375 25.742188 16.308594 C 25.851562 15.773438 26.015625 15.253906 26.230469 14.75 C 26.441406 14.246094 26.707031 13.765625 27.015625 13.3125 C 27.328125 12.859375 27.683594 12.441406 28.078125 12.054688 C 28.472656 11.667969 28.90625 11.324219 29.371094 11.019531 C 29.835938 10.71875 30.328125 10.460938 30.84375 10.253906 C 31.363281 10.042969 31.894531 9.886719 32.445312 9.78125 C 32.996094 9.675781 33.550781 9.621094 34.109375 9.621094 C 34.671875 9.621094 35.226562 9.675781 35.773438 9.78125 C 36.324219 9.886719 36.855469 10.042969 37.375 10.253906 C 37.890625 10.460938 38.382812 10.71875 38.847656 11.019531 C 39.316406 11.324219 39.746094 11.667969 40.140625 12.054688 C 40.539062 12.441406 40.890625 12.859375 41.203125 13.3125 C 41.515625 13.765625 41.777344 14.246094 41.992188 14.75 C 42.207031 15.253906 42.367188 15.773438 42.476562 16.308594 C 42.585938 16.84375 42.640625 17.382812 42.640625 17.929688 Z M 42.640625 17.929688 " fill-opacity="1" fill-rule="nonzero"/></g></svg>