<svg xmlns="http://www.w3.org/2000/svg" xmlns:xlink="http://www.w3.org/1999/xlink" width="92" zoomAndPan="magnify" viewBox="0 0 69 68.999997" height="92" preserveAspectRatio="xMidYMid meet" version="1.0"><defs><g/></defs><g fill="#5e17eb" fill-opacity="1"><g transform="translate(10.635626, 57.065752)"><g><path d="M 11.40625 -33.777344 L 11.40625 -58.976562 C 11.40625 -59.277344 11.109375 -59.648438 10.585938 -59.648438 L 0.820312 -59.648438 C 0.371094 -59.648438 0 -59.277344 0 -58.976562 L 0 -33.777344 Z M 44.585938 -59.648438 L 34.820312 -59.648438 C 34.371094 -59.648438 34 -59.277344 34 -58.976562 L 34 -22.292969 L 11.40625 -22.292969 L 11.40625 -22.367188 L 0 -22.367188 L 0 -0.671875 C 0 -0.371094 0.371094 0 0.820312 0 L 10.585938 0 C 11.109375 0 11.40625 -0.371094 11.40625 -0.671875 L 11.40625 -11.183594 L 34 -11.183594 L 34 -0.671875 C 34 -0.371094 34.371094 0 34.820312 0 L 44.585938 0 C 45.109375 0 45.40625 -0.371094 45.40625 -0.671875 L 45.40625 -58.976562 C 45.40625 -59.277344 45.109375 -59.648438 44.585938 -59.648438 Z M 44.585938 -59.648438 "/></g></g></g></svg>